<svg width="1080" height="1080" viewBox="0 0 1080 1080" fill="none" xmlns="http://www.w3.org/2000/svg">
<path d="M582.417 764.501C610.462 794.29 593.618 843.294 553.174 849.576L361.29 879.381C327.743 884.592 298.596 856.134 303.032 822.5L330.06 617.59C335.666 575.087 388.164 558.172 417.561 589.396L582.417 764.501Z" fill="#212121"/>
<path d="M691.708 649.583C691.708 695.629 635.346 717.957 603.771 684.419L403.977 472.204C387.244 454.431 385.508 427.286 399.839 407.529L599.634 132.1C628.577 92.2002 691.708 112.659 691.708 161.939V649.583Z" fill="#212121"/>
<path d="M847.029 577.418C819.233 535.331 753.684 554.996 753.684 605.422V788.641C753.684 813.228 771.292 834.292 795.505 838.67L932.916 863.513C976.965 871.477 1009.1 822.814 984.44 785.48L847.029 577.418Z" fill="#212121"/>
<path d="M244.257 779.006C250.569 731.15 192.844 702.263 158.276 735.98L101.443 791.411C68.7918 823.257 91.3552 878.635 136.981 878.635H186.503C212.033 878.635 233.61 859.73 236.946 834.437L244.257 779.006Z" fill="#212121"/>
</svg>
