<svg width="481" height="259" viewBox="0 0 481 259" fill="none" xmlns="http://www.w3.org/2000/svg">
<path fill-rule="evenodd" clip-rule="evenodd" d="M242.458 3.51308e-05C244.714 -0.0072811 246.821 1.12856 248.057 3.0183L338.574 141.475C339.385 142.715 341.217 142.673 341.97 141.396L372.46 89.7152C373.653 87.6936 375.82 86.4483 378.166 86.4363C380.512 86.4244 382.691 87.6475 383.904 89.6569L480.04 248.882C481.283 250.941 481.322 253.512 480.14 255.608C478.958 257.704 476.74 259 474.335 259H6.66514C4.18467 259 1.90938 257.622 0.75948 255.422C-0.390423 253.223 -0.224698 250.567 1.18963 248.528L141.999 45.5161C143.26 43.6982 145.34 42.6245 147.552 42.6499C149.763 42.6753 151.817 43.7966 153.036 45.6429L179.88 86.3066C180.675 87.512 182.447 87.5024 183.23 86.2883L236.878 3.05454C238.101 1.15683 240.201 0.00735136 242.458 3.51308e-05ZM172.969 102.207C173.399 101.541 173.394 100.683 172.957 100.022L154.992 72.8062C153.964 71.2494 151.553 71.8228 151.336 73.6756L145.4 124.414C145.269 125.531 146.086 126.536 147.206 126.638L155.464 127.386C156.205 127.454 156.922 127.104 157.326 126.478L172.969 102.207ZM146.723 142.927C147.538 141.664 146.72 139.988 145.223 139.852L102.551 135.984C101.295 135.87 100.248 136.934 100.382 138.189L104.83 179.832C104.922 180.687 105.55 181.388 106.39 181.573L118.542 184.245C119.358 184.425 120.2 184.078 120.652 183.376L146.723 142.927ZM110.63 198.924C111.386 197.753 110.741 196.187 109.379 195.888L101.186 194.086C100.635 193.965 100.058 194.082 99.5975 194.409L32.6483 242.031C31.0612 243.16 31.8599 245.661 33.8076 245.661H79.4161C80.0958 245.661 80.729 245.316 81.0972 244.744L110.63 198.924ZM127.593 241.809C125.561 242.638 126.154 245.661 128.349 245.661H192.833C193.398 245.661 193.936 245.422 194.315 245.004L232.121 203.283C233.55 201.706 231.854 199.284 229.884 200.088L127.593 241.809ZM261.135 195.533C260.638 194.096 258.783 193.717 257.763 194.844L214.744 242.318C213.579 243.603 214.491 245.661 216.226 245.661H275.666C277.041 245.661 278.006 244.306 277.556 243.007L261.135 195.533ZM292.115 244.315C292.394 245.12 293.153 245.661 294.005 245.661H367.527C369.621 245.661 370.307 242.85 368.447 241.885L278.859 195.437C277.255 194.605 275.458 196.159 276.048 197.866L292.115 244.315ZM242.757 180.433C244.336 179.789 244.436 177.59 242.922 176.805L177.879 143.083C176.355 142.292 174.609 143.664 175.015 145.332L188.372 200.136C188.661 201.323 189.938 201.976 191.07 201.514L242.757 180.433ZM174.845 208.132C175.762 207.758 176.267 206.769 176.033 205.807L162.326 149.563C161.91 147.857 159.653 147.477 158.701 148.954L104.632 232.84C103.573 234.484 105.258 236.514 107.069 235.776L174.845 208.132ZM222.628 146.844C220.358 146.392 219.262 149.515 221.318 150.581L283.464 182.802C284.711 183.448 286.217 182.643 286.373 181.248L288.537 161.817C288.652 160.785 287.958 159.837 286.94 159.634L222.628 146.844ZM303.999 163.027C302.85 162.798 301.751 163.603 301.621 164.767L298.883 189.352C298.791 190.174 299.215 190.968 299.95 191.349L376.841 231.214C378.667 232.161 380.561 230.066 379.436 228.344L342.086 171.214C341.792 170.764 341.33 170.451 340.803 170.347L303.999 163.027ZM358.067 165.33C356.391 165.154 355.263 167.003 356.185 168.413L375.179 197.466C375.508 197.97 376.045 198.298 376.643 198.361L392.817 200.064C394.616 200.253 395.722 198.146 394.545 196.773L369.04 167.03C368.707 166.642 368.239 166.396 367.73 166.343L358.067 165.33ZM386.034 162.174C384.705 162.639 384.26 164.295 385.176 165.363L402.269 185.297C403.512 186.747 405.886 185.796 405.784 183.889L404.431 158.45C404.361 157.119 403.032 156.228 401.774 156.668L386.034 162.174ZM422.679 179.673C421.603 177.891 418.859 178.734 418.97 180.813L420.228 204.461C420.26 205.068 420.566 205.627 421.06 205.981L443.997 222.405C445.765 223.671 447.997 221.606 446.874 219.746L422.679 179.673ZM447.339 245.661C449.284 245.661 450.085 243.167 448.504 242.035L420.304 221.842C419.154 221.019 417.537 221.615 417.198 222.988L412.208 243.181C411.897 244.442 412.851 245.661 414.15 245.661H447.339ZM397.77 232.023C398.726 233.485 400.966 233.104 401.385 231.408L404.936 217.039C405.227 215.861 404.41 214.697 403.204 214.57L389.303 213.106C387.626 212.93 386.497 214.779 387.419 216.19L397.77 232.023ZM399.249 140.867C399.906 141.954 399.396 143.369 398.197 143.789L382.416 149.309C381.04 149.79 379.627 148.684 379.765 147.232L382.358 119.87C382.54 117.95 385.065 117.374 386.061 119.024L399.249 140.867ZM364.181 129.986C365.268 128.145 368.097 129.063 367.895 131.191L366.044 150.723C365.939 151.83 364.951 152.639 363.845 152.523L354.736 151.569C353.288 151.417 352.482 149.818 353.222 148.563L364.181 129.986ZM328.802 150.893C329.772 152.377 328.476 154.295 326.738 153.949L263.756 141.423C262.443 141.162 261.753 139.711 262.377 138.528L286.861 92.1655C287.572 90.8179 289.469 90.7295 290.303 92.005L328.802 150.893ZM279.555 77.4486C279.895 76.8056 279.859 76.0289 279.461 75.4203L265.752 54.4505C264.513 52.5553 261.574 53.8539 262.141 56.0459L270.292 87.5421C270.749 89.3107 273.143 89.5904 273.997 87.975L279.555 77.4486ZM261.982 110.726C262.215 110.285 262.275 109.773 262.15 109.291L255.619 84.0545C255.284 82.7599 253.798 82.1524 252.652 82.8419L186.671 122.545C185.105 123.487 185.519 125.863 187.312 126.22L246.018 137.896C246.886 138.068 247.764 137.65 248.177 136.868L261.982 110.726ZM189.84 100.644C188.692 102.424 190.737 104.533 192.552 103.441L250.184 68.762C250.943 68.3055 251.311 67.4044 251.089 66.5473L240.982 27.4914C240.546 25.8039 238.31 25.4438 237.365 26.909L189.84 100.644ZM43.2058 218.156C41.3797 219.455 39.1259 217.228 40.4031 215.386L84.8448 151.313C85.9007 149.79 88.2801 150.398 88.4769 152.24L91.6996 182.409C91.7764 183.128 91.4593 183.832 90.8702 184.251L43.2058 218.156ZM106.593 119.958C105.719 121.217 106.529 122.951 108.056 123.09L129.94 125.073C131.02 125.171 131.981 124.391 132.107 123.314L136.827 82.9734C137.069 80.9054 134.384 79.8903 133.197 81.6011L106.593 119.958Z" fill="white"/>
</svg>
